<svg id="Capa_1" data-name="Capa 1" xmlns="http://www.w3.org/2000/svg" viewBox="0 0 252.23 282.04"><title>hero-chica</title><path d="M134.53,126.88a68,68,0,0,1-6.41-9.62,20.41,20.41,0,0,1-1.28-2.77c-.4-1.08-.59-2.24.52-3s2.35-.24,3.21.67a50.13,50.13,0,0,1,6.13,8.23,37.59,37.59,0,0,1,4,7.61c1,2.88-.2,4.23-3.12,3.52a76.21,76.21,0,0,1-11.2-4.09c-.85-.36-1.82-1-1.49-2s1.46-.86,2.38-.75C129.59,124.89,131.7,125.84,134.53,126.88Z" transform="translate(-18.41 -38.72)"/><path d="M120.77,142.8c-3.06-.19-5.66-2.33-7.38-5.66-1.34-2.59-1.62-5.48-2-8.31-.15-1.15.24-2.44,1.61-2.45,1.52,0,.78,1.32.85,2.13a13.39,13.39,0,0,0,3.23,7.79c2.23,2.63,5.17,2.47,8.15,2.15,1-.11,2.2-.41,2.58.87.32,1.1-.77,1.56-1.52,2.05A9.15,9.15,0,0,1,120.77,142.8Z" transform="translate(-18.41 -38.72)"/><path d="M117.57,91.89c2.35.27,5,.84,6.8,3.38.42.61.8,1.37.2,2s-1.17,0-1.73-.25c-6.43-2.79-11-1.44-15.28,4.59-.59.83-1.21,1.54-2.25.87-.81-.52-.82-1.34-.48-2.23C106.57,95.89,112.45,91.83,117.57,91.89Z" transform="translate(-18.41 -38.72)"/><path d="M162.34,264.83c-1.74.05-3.38-.11-4.56-1.58a1.92,1.92,0,0,1-.36-1.83,1,1,0,0,1,1.3-.72c4.92.87,9-1.54,13.12-3.5.7-.33,1.39-1.41,2.17-.67s0,1.75-.53,2.45C170.74,262.76,166.89,264.48,162.34,264.83Z" transform="translate(-18.41 -38.72)"/><path d="M92.22,119.67c0,1.55,0,3.09,0,4.64,0,.44.08,1-.54,1.14s-.84-.39-1-.83a8.88,8.88,0,0,1-.68-2.1c-.3-2.53-.56-5.07-.71-7.61-.06-1.08-.26-2.66,1.3-2.71s1.37,1.61,1.47,2.64c.16,1.6,0,3.22,0,4.83Z" transform="translate(-18.41 -38.72)"/><path d="M147.61,97.36c-.2,1.13-.77,1.6-2,1.16-3.65-1.37-7.06-1.44-9.9,1.8a1.56,1.56,0,0,1-2.26.22,1.9,1.9,0,0,1-.54-2.49c1.77-4.12,10.16-5.89,13.44-2.84A3.72,3.72,0,0,1,147.61,97.36Z" transform="translate(-18.41 -38.72)"/><path d="M120,112.12a12,12,0,0,1-1.82,6c-1,1.8-2.15,1.43-3.19,0-1.29-1.74-.83-8.19.64-9.82a2.26,2.26,0,0,1,3.82.77A14.47,14.47,0,0,1,120,112.12Z" transform="translate(-18.41 -38.72)"/><path d="M140.19,112.2a3.37,3.37,0,0,1,0-.55c.37-1.79-.07-4.18,2.66-4.41,1.62-.14,2.82,2.55,2.45,5.15a1.28,1.28,0,0,1-.05.27c-.48,1.68-.83,3.58-3,3.79C140.92,116.58,140.14,114.81,140.19,112.2Z" transform="translate(-18.41 -38.72)"/><path d="M84,135c.31,2.25,1.84,3.27,4.71,3.14,3.08-.14,5-2.25,5-5.57-.94.89-1.78,1.73-2.67,2.52-1.27,1.13-2.81,1.91-4.16.49s-.69-3,.59-4.14a2.38,2.38,0,0,0,1-2.59A5.65,5.65,0,0,0,84,135Z" transform="translate(-18.41 -38.72)" style="fill:none"/><path d="M69.08,103.51c3.09-15.12,11.86-26.76,20.15-38.68C79.06,69.92,67.44,92.24,69.08,103.51Z" transform="translate(-18.41 -38.72)" style="fill:none"/><path d="M91.54,260.29c-2.05-1.32-1.91-3,.3-4.07a6.45,6.45,0,0,1,4.35-.34,25.8,25.8,0,0,1,7.66,3.21l5.94,3.58a41.06,41.06,0,0,0-3.87-8.63c-2.31-4.38-6.61-6-11.31-4.5a31.57,31.57,0,0,0-7,3.37,94.62,94.62,0,0,0-24,21.35c-4.31,5.46-9,10.63-13.56,15.84-.57.64-1.18,1.7-2.26.87-.9-.7-.57-1.65-.16-2.53a15.31,15.31,0,0,1,2.59-3.24c2.74-3.28,5.42-6.61,8.12-9.93-6.17,1.64-12,3.7-17.89,5.68-1.74.59-2,1.58-1.51,3.2a65.25,65.25,0,0,1,1.82,7,48,48,0,0,0,9.91,21.19c2.23,2.82,5,3.55,8.42,2.29a21.57,21.57,0,0,0,7.6-5c5.61-5.53,11.25-11,16.12-17.28a25.37,25.37,0,0,1,6.36-6.17c.89-.56,1.46-2.05,2.75-1.44s1.21,2.15,1.29,3.43a51.35,51.35,0,0,1-.55,8.31c-.08.78-.28,1.85.75,2.15s1.54-.55,2-1.2a6.64,6.64,0,0,0,1.16-5.27c-.7-4.65-2.21-8.82-6.51-11.42-.7-.42-1.62-.92-1.08-1.93s1.5-.49,2.25-.26a11,11,0,0,1,4.07,2.34,20.87,20.87,0,0,1,6.13,9c.17-6.06-1.07-11.55-6.1-15.51-1.74-1.37-3.67-2.5-5.51-3.75-.82-.56-2.19-1.07-1.71-2.19.55-1.3,1.91-.66,3-.33a23.1,23.1,0,0,1,11.38,7.46C100.31,269.35,97.18,263.92,91.54,260.29Z" transform="translate(-18.41 -38.72)" style="fill:none"/><path d="M176.89,217.83a30.4,30.4,0,0,1,2.51,7.35,197.71,197.71,0,0,1,3.87,24.43c.26,2.55,1.06,3.32,3.69,2.68,6.4-1.53,12.62-3.73,19.13-4.83,3.7-.63,3.67-.77,2.26-4.35-.31-.78-.56-1.57-.83-2.36q-4-11.72-8.06-23.41a4.21,4.21,0,0,0-1.46-2.51h0a2.52,2.52,0,0,0-1.15-.3,129.69,129.69,0,0,1-15.68-1.63,13.71,13.71,0,0,0-1.74,0,3.68,3.68,0,0,0-2.79,1.6l1.17-.87-1.17.87A3.38,3.38,0,0,0,176.89,217.83Z" transform="translate(-18.41 -38.72)" style="fill:none"/><path d="M203.05,253.18c-5.61,1.24-11.21,2.51-16.86,3.54-1.95.36-2.52,1.25-2.27,3a46.46,46.46,0,0,1,.24,10.37,43.84,43.84,0,0,1,4.71-1.1c1.2-.15,2.89-.64,3.37,1,.41,1.38-1,2.1-2.06,2.62a19.6,19.6,0,0,1-4.87,2c-7,1.36-13.31,4.57-20.1,6.44-.7.19-1.65.45-1.94,1-1.59,2.94-2.5.89-3.37-.43-1.87-2.83-2.53-6.15-3.65-9.29a8.77,8.77,0,0,0-4.54-5.36,12.74,12.74,0,0,0-.48,2.37c0,2.33-1.2,5,2.4,6.14,1.38.45.47,1.64-.62,2.13-2.42,1.08-5.11.76-7.58,1.41-5.84,1.55-11.72,1.47-17.67,1.09a123,123,0,0,1-16.1-1.64,32.49,32.49,0,0,0,14.87,8.29c1.52.42,3.05.78,4.57,1.19.7.19,1.58.28,1.52,1.28s-.82,1.13-1.54,1.38a6.86,6.86,0,0,1-3.57.13c-6.17-1.08-11.13-4.4-15.72-8.43-1.21-1.06-2.45-2.07-3.79-3.21a3.57,3.57,0,0,0,1.07,4.12,29.59,29.59,0,0,0,12.52,8l6.87,2.22c.83.26,1.72.58,1.56,1.62s-1.22,1.27-2.18,1.16a23,23,0,0,1-2.45-.48A58.46,58.46,0,0,1,115,291.87a66.83,66.83,0,0,0,9.38,5.67c1.31.69,3.57.88,2.42,3.44-.24.55.47.68.86.84a54.51,54.51,0,0,0,8.84,3.27c10.35,2.39,20.64.68,30.95-.31,7.81-.76,13.9-5.22,20.27-9.23a37.29,37.29,0,0,0,14.95-18.12c2.91-7.14,3.13-14.59,3.15-22.13C205.86,252.83,204.93,252.76,203.05,253.18Z" transform="translate(-18.41 -38.72)" style="fill:none"/><path d="M112.68,273.34c-.32-1.22-.56-2.29-.88-3.34s-.12-2.68-1.51-3c-3.75-1-6.92-3.41-11.23-4.21a23.19,23.19,0,0,1,7.13,9.45c.21.53.42,1.53,1.26,1.09C109.15,272.4,110.7,273.65,112.68,273.34Z" transform="translate(-18.41 -38.72)" style="fill:none"/><path d="M199.46,217.35q4.06,11.7,8.06,23.41c.27.79.52,1.59.83,2.36,1.41,3.57,1.44,3.72-2.26,4.35-6.51,1.1-12.73,3.29-19.13,4.83-2.64.63-3.43-.13-3.69-2.68a197.71,197.71,0,0,0-3.87-24.43,30.26,30.26,0,0,0-2.51-7.35,3.41,3.41,0,0,1-.25-3.31l-5.24,3.93c.59-.23,1,0,1.19,1.21,1.22,6.75,2.56,13.47,3.77,20.22,1.84,10.22,1.91,20.64,3.4,30.9.23,1.6-.69,1.95-1.75,2.32-3.15,1.1-6.32,2.14-9.48,3.21-1.83.62-3.77,2.54-5.32,1.81s-1.25-3.47-2-5.26c-1.73-4.38-3.51-8.67-8.62-10.16-.93-.27-1-1-.92-1.78.78-5.83.24-11.65-.05-17.48s-.94-11.63-1.81-17.4c-.27-1.81-.82-3.92-3.29-3.79-4,.22-7.95-.29-11.92.28-6.89,1-13.58,2.94-20.4,4.24a3.17,3.17,0,0,0-2.65,2.79,72.19,72.19,0,0,0-2,19.59,5.42,5.42,0,0,1-.28,3c-5.45-8.37-13.21-7.65-19.69-4.8a46.52,46.52,0,0,0-12.34,7.95,116.73,116.73,0,0,0-10.19,10.35c0-1.84,0-2.83,0-3.83.46-12.23.81-24.46-.13-36.68-.13-1.66-.26-3.33-.54-5-.22-1.24-.37-2.87-2-2.88s-1.75,1.68-1.89,2.91c-.19,1.75-.2,3.52-.22,5.28-.16,11.88.78,23.7,1.67,35.53.12,1.66.74,3.6.11,4.92-.79,1.64-3.22.66-4.78,1.43-.66.32-1.42.44-2.1.72-5.49,2.25-11,4.5-16.45,6.79-5,2.09-9.94,4.25-15.23,6.52a99.54,99.54,0,0,0,3.22-15.91c1.17-10.72,2.81-21.33,6.65-31.49,5.88-15.59,14.34-29.29,28.36-38.95,4.8-3.3,4.78-3.33,9.09.49,16.91,14.94,45.09,17.42,64.24,5.64a23.21,23.21,0,0,0,5.16-4.21c.43-.48.89-1.07.38-1.71A1.34,1.34,0,0,0,141,195c-2.46.81-5,1.49-7.36,2.53a61.44,61.44,0,0,1-33.43,4.71,53.15,53.15,0,0,1-26.37-10.94c-1.47-1.16-1.5-1.83.26-2.65,4.79-2.23,9.38-5,14.35-6.69,4.77-1.62,6-4.94,6.44-9.2.81-7.74,1.69-15.46,2.46-23.2.53-5.35,1.06-10.7,1.31-16.06.15-3.26-1.65-4.67-4.31-3.28s-4.24.67-5.77-1.4h0a2.36,2.36,0,0,1-1,2.59c-1.28,1.13-1.89,2.77-.59,4.14s2.89.64,4.16-.49c.89-.79,1.73-1.63,2.67-2.52,0,3.33-2,5.43-5,5.57-2.87.13-4.4-.89-4.71-3.14a5.66,5.66,0,0,1,4.54-6.16v0h0a41.88,41.88,0,0,1-1-20,9.77,9.77,0,0,1,1.71-4.06c.52-.67,1.15-1.31,2.09-1.1s1,1.05,1.17,1.74c.35,1.91.56,3.85.88,5.76.12.74.38,1.48,1.25,1.66s1.23-.58,1.64-1.2c.87-1.3,1.56-2.87,2.73-3.8,2.29-1.83,3.52-4.23,4.67-6.79a115.83,115.83,0,0,0,9.56-34.41c.16-1.4.39-2.8.64-4.5,1.54,1.89,2.76,3.52,4.12,5,8.55,9.51,17.63,18.34,29.9,23a3.21,3.21,0,0,1,2.1,2.66c.63,2.9,1.22,5.8,2,8.68a76.34,76.34,0,0,1,1.44,31.15c-1.77,10.87-5.62,20.71-16,26.69a41.88,41.88,0,0,1-16.18,5.5c-.72.08-1.7-.07-1.85.84-.2,1.16,1,1.22,1.68,1.41a18.62,18.62,0,0,0,8.27,0c1.72-.35,2.33.15,2.55,1.84.28,2.12.31,4.25.45,6.37q.36,5.67,1,11.32c.11.92.5,2.29,1.8,2,1.12-.24.78-1.53.81-2.41a143.8,143.8,0,0,0-1-17.48c-.18-1.91.18-3.32,1.82-4.25,9.38-5.33,15.72-13.63,21.81-22.21,6.28-8.84,8.94-18.81,9.58-29.47.89-14.83-1.64-29.21-5.94-43.31A38.14,38.14,0,0,0,156,56.58c-7.47-9.47-17.56-13.87-29.08-15.74a31.06,31.06,0,0,0-15.57,1.73c-2,.7-3.53,3.8-6.11,1-.08-.09-.39,0-.54,0-2.32,1.31-3.91.14-5.54-1.45a9.84,9.84,0,0,0-4.7-2.32,34.62,34.62,0,0,0-17.36-.12c-25,6.81-40.59,24-49.74,47.37a32.7,32.7,0,0,0,1.7,28c2.7,5.09,6.81,9,10.75,13,6.75,6.94,7.49,11.78,3.39,20.6-2.42,5.21-5.21,10.27-7,15.74-1.92,5.73-3.74,11.53-2.32,17.69,1.09,4.76,5,7.65,9.29,6.95a13,13,0,0,0,6.76-3.66,33.31,33.31,0,0,0,8.3-13.34c.58-1.6,1.23-2.51,3.17-2.14a6.27,6.27,0,0,0,5.35-1.82A14.41,14.41,0,0,0,71,160.56c1.94-7.58,1.82-15.24.81-22.93-.44-3.35-1-6.68-1.47-10.15.86.24.86.77,1,1.17,3.25,7.11,6.76,14,12.39,19.66A55.27,55.27,0,0,1,88.6,154c4.16,5.5,3.27,11.65,2.38,17.89-.4,2.83-1.75,4-4.32,4.93-7.93,2.86-15.87,5.79-23.06,10.31-20,12.57-32.29,30.73-38.56,53.23C21.51,253,20.86,266.17,18.55,279a12.94,12.94,0,0,0,.55,5.78c.61,2.17,1.9,3.12,4.16,2.32,2.53-.9,5.1-1.7,7.59-2.72,1.94-.79,2.76-.43,3.19,1.76,1.23,6.28,2.67,12.52,5.33,18.39a45.4,45.4,0,0,0,8.87,12.71c4.29,4.46,9.62,4.54,16.31.81,7.56-4.21,13-10.64,18-17.52l6-8.33c.53,2.18.3,4.15.58,6,.63,4.3,4.13,5.72,7.77,3.27a9.06,9.06,0,0,0,4.09-6.69c.27-2.79,2.55-3.26,4.19-4.11,1.11-.57,1.79,1.52,2.7,2.37.74.7,1.41,1.49,2.19,2.13,14.66,12.07,32,15.45,50.29,14.74,9.56-.37,18.5-4,26.77-8.71,11.61-6.6,19.75-16,22.47-29.58a71,71,0,0,0,1-16.58c-.06-1.83-.43-3.77,2-4.63.77-.28.78-1.21.75-2A42.48,42.48,0,0,0,213,243a110.17,110.17,0,0,0-7.44-25.58c-.57-1.28-.77-2.15-.19-2.61H198A4.44,4.44,0,0,1,199.46,217.35ZM69.08,103.51c-1.65-11.27,10-33.59,20.15-38.68C80.94,76.75,72.17,88.39,69.08,103.51Zm22,164.57c-1-.34-2.39-1-3,.33-.48,1.12.89,1.63,1.71,2.19,1.84,1.25,3.77,2.38,5.51,3.75,5,3.95,6.27,9.45,6.1,15.51a20.92,20.92,0,0,0-6.13-9,10.94,10.94,0,0,0-4.07-2.34c-.75-.23-1.73-.71-2.25.26s.38,1.51,1.08,1.93c4.3,2.6,5.81,6.77,6.51,11.42a6.63,6.63,0,0,1-1.16,5.27c-.5.65-1.13,1.46-2,1.2s-.83-1.37-.75-2.15a51.42,51.42,0,0,0,.55-8.31c-.08-1.28.07-2.79-1.29-3.43s-1.86.88-2.75,1.44a25.55,25.55,0,0,0-6.36,6.17c-4.87,6.23-10.5,11.74-16.12,17.28a21.48,21.48,0,0,1-7.6,5c-3.39,1.26-6.19.53-8.42-2.29a48,48,0,0,1-9.91-21.19,65.25,65.25,0,0,0-1.82-7c-.49-1.62-.23-2.62,1.51-3.2,5.87-2,11.72-4,17.89-5.68-2.7,3.31-5.38,6.64-8.12,9.93a15.31,15.31,0,0,0-2.59,3.24c-.41.88-.74,1.84.16,2.53,1.08.84,1.69-.23,2.26-.87,4.61-5.21,9.25-10.38,13.56-15.84a94.64,94.64,0,0,1,24-21.35,31.36,31.36,0,0,1,7-3.37c4.71-1.54,9,.13,11.31,4.5a40.1,40.1,0,0,1,3.87,8.63l-5.94-3.58a25.69,25.69,0,0,0-7.66-3.21,6.5,6.5,0,0,0-4.35.34c-2.21,1.06-2.35,2.75-.3,4.07,5.64,3.63,8.77,9.07,11,15.26A23,23,0,0,0,91.12,268.08Zm15.08,4.12a23.19,23.19,0,0,0-7.13-9.45c4.31.8,7.49,3.25,11.23,4.21,1.39.36,1.18,1.94,1.51,3s.56,2.12.88,3.34c-2,.31-3.53-.94-5.22-.06C106.61,273.72,106.41,272.73,106.2,272.2Zm96.5,5.23a37.34,37.34,0,0,1-14.95,18.12c-6.36,4-12.46,8.48-20.27,9.23-10.3,1-20.6,2.7-30.95.31a54.76,54.76,0,0,1-8.84-3.27c-.39-.17-1.1-.3-.86-.84,1.14-2.56-1.12-2.75-2.42-3.44a65.89,65.89,0,0,1-9.38-5.67,59.26,59.26,0,0,0,10.36,3.79,20.78,20.78,0,0,0,2.45.48c1,.11,2,0,2.18-1.16s-.73-1.35-1.56-1.62l-6.87-2.22a29.5,29.5,0,0,1-12.52-8A3.57,3.57,0,0,1,108,279c1.34,1.13,2.58,2.15,3.79,3.21,4.59,4,9.56,7.34,15.72,8.43a6.87,6.87,0,0,0,3.57-.13c.72-.25,1.48-.5,1.54-1.38s-.81-1.1-1.52-1.28c-1.52-.4-3-.77-4.57-1.19a32.44,32.44,0,0,1-14.87-8.29,123,123,0,0,0,16.1,1.64c6,.38,11.83.46,17.67-1.09,2.48-.66,5.17-.33,7.58-1.41,1.09-.49,2-1.68.62-2.13-3.6-1.17-2.42-3.81-2.4-6.14a13.44,13.44,0,0,1,.48-2.37,8.74,8.74,0,0,1,4.54,5.36c1.12,3.14,1.78,6.46,3.65,9.29.88,1.32,1.79,3.37,3.37.43.28-.52,1.24-.78,1.94-1,6.78-1.87,13.14-5.07,20.1-6.44a19.83,19.83,0,0,0,4.87-2c1-.52,2.47-1.24,2.06-2.62-.49-1.62-2.17-1.13-3.37-1a43.84,43.84,0,0,0-4.71,1.1,46.46,46.46,0,0,0-.24-10.37c-.25-1.74.31-2.64,2.27-3,5.65-1,11.25-2.3,16.86-3.54,1.88-.42,2.8-.35,2.8,2.12C205.84,262.84,205.61,270.29,202.7,277.43Z" transform="translate(-18.41 -38.72)"/><path d="M267.66,169.7c-4.84-7.93-12.37-12.41-20.62-15.77-13.59-5.53-27.76-7.49-42.43-7-13.68.48-27,2.55-39.52,8-8.49,3.71-16.39,8.34-21.41,16.6-3.68,6-3.92,12.22-.51,18.48a26.94,26.94,0,0,0,9.93,10.28,4,4,0,0,1,2.12,4.62c-.85,4.88-.53,9.81-.37,14.71.17,5.4,3.42,7.11,8.25,4.57a30.24,30.24,0,0,0,3.45-2.33q2-1.46,4-3a3.45,3.45,0,0,1,.83-.51l5.24-3.93a3.69,3.69,0,0,1,2.79-1.6,13.65,13.65,0,0,1,1.74,0,129.69,129.69,0,0,0,15.68,1.63,2.27,2.27,0,0,1,1.15.3h7.37a3.2,3.2,0,0,1,2-.39,67.28,67.28,0,0,0,6.92-.5c10.59-.89,21-2.8,30.81-6.91,8.8-3.68,17-8.46,22.23-16.89C271.5,183.44,271.88,176.61,267.66,169.7Z" transform="translate(-18.41 -38.72)" style="fill:#00d647"/><path d="M88.58,128.79h0v0Z" transform="translate(-18.41 -38.72)"/><path d="M98,44c2.29-1.56,4.63-2.76,7.48-1.8a3,3,0,0,1,2,2.15,1.63,1.63,0,0,1-1.12,2.09c-7.35,3.06-10.7,9.76-14.6,16-.65,1-.66,3.09-2.33,2.77-1.9-.36-1.47-2.37-1.39-3.74C88.53,54,92.23,48.35,98,44Z" transform="translate(-18.41 -38.72)" style="fill:#00d647"/><path d="M120.64,237.09a7,7,0,0,1-1.08,3.58c-.61,1.06-1.27.85-1.89,0-.76-1-.49-4.85.38-5.81a1.33,1.33,0,0,1,2.26.46A8.33,8.33,0,0,1,120.64,237.09Z" transform="translate(-18.41 -38.72)" style="fill:#fff"/><path d="M160.68,180.63c-.24-2.37.52-5,.52-7.7a7,7,0,0,1,.79-3.17c.48-.93,1.12-.89,1.85-.77s1.08.67,1,1.5c-.11,1.9-.15,3.8-.2,5.7,0,.33-.34.84.32.95s1.54-.19,1.58-.39c.17-1.07,1.13-1.85.92-3.11a5.53,5.53,0,0,1,.62-3.57,1.7,1.7,0,0,1,2-.92c.87.13,1,.74,1.12,1.5.6,2.9-.18,5.73-.47,8.57-.2,1.9-.34,3.93-1.46,5.64a6,6,0,0,1-.69,1c-.64.64-1.08.69-1.48-.34a12.38,12.38,0,0,1-.49-5.16c0-.45.24-1.15-.59-1-.62.09-1.57-.55-1.8.68-.33,1.78-.69,3.56-1.06,5.33-.07.34-.26.65-.31,1-.07.52-.25.78-.83.73a1,1,0,0,1-1-.69C160.37,184.56,160.59,182.76,160.68,180.63Z" transform="translate(-18.41 -38.72)" style="fill:#010101"/><path d="M217.62,180.46c-.43,1.43-.84,2.52-1.07,3.64a17.06,17.06,0,0,1-.61,1.62c-.3,1-.88,1.53-1.84,1.27a2.07,2.07,0,0,1-1.53-2.11c-.1-2.16.62-4.16,1.11-6.2.64-2.63,1.28-5.27,2.07-7.86a3,3,0,0,1,2.95-2.29c1.46,0,3.1.21,3.7,1.91a6.7,6.7,0,0,1-.44,4.77,2.77,2.77,0,0,1-.56,1.06c-1.57,1.44-1.11,2.83-.18,4.42a8.73,8.73,0,0,1,1.56,4.91c0,.56.17,1.24-.75,1.37-.76.11-1.38.14-1.82-.68A42.24,42.24,0,0,1,217.62,180.46Zm2-9.7c-.89,1.27-.46,2.52-.84,3.63A3.26,3.26,0,0,0,219.67,170.76Z" transform="translate(-18.41 -38.72)" style="fill:#010101"/><path d="M181.29,175.61a19.8,19.8,0,0,1-2.08,9.12c-.93,1.76-1.87,2.51-3.52,2.36-1.09-.09-2.45-1.52-2.81-2.93a18.19,18.19,0,0,1,.68-10.63,14.46,14.46,0,0,1,1.49-2.83c1.09-1.76,2.28-2.26,4-1.76s2.37,1.72,2.37,3.65C181.37,173.61,181.32,174.61,181.29,175.61ZM177.6,173c-1.4,2.57-1.29,5.18-1.34,7.75,0,.3-.23.78.27.87s.5-.4.6-.71A15,15,0,0,0,177.6,173Z" transform="translate(-18.41 -38.72)" style="fill:#010101"/><path d="M214.19,171.19c-.84,2.51-1.5,5.86-4.74,7.63-1.19.65-.57,1.77-.89,2.62a38.19,38.19,0,0,0-1.2,5.28c-.32,1.48-1.25,2.4-2.38,2.08s-1.22-1.39-1.2-2.45A56.2,56.2,0,0,1,205,178.5a63.4,63.4,0,0,1,2-9.22c.53-1.64,2.13-3.12,3.33-2.82C213,167.13,214.45,168.32,214.19,171.19Zm-4.23.39c0,.53,0,.93,0,1.32,0,.21,0,.42.28.43a.47.47,0,0,0,.37-.17,5.42,5.42,0,0,0,.92-3.64.85.85,0,0,0-1-.67c-.13,0-.41-.09-.29.28C210.49,170,209.67,170.81,210,171.58Z" transform="translate(-18.41 -38.72)" style="fill:#010101"/><path d="M232.4,176.58a17.85,17.85,0,0,1-1.8,7.88,8.29,8.29,0,0,1-1.06,1.63,2.94,2.94,0,0,1-3.45,1.19,4,4,0,0,1-2.09-2.86c-1.13-4-.23-7.76,1.33-11.37a5,5,0,0,1,3.8-3.33,2.38,2.38,0,0,1,2.82,1.63C232.62,172.93,232.45,174.54,232.4,176.58Zm-5.23,6.6a13.29,13.29,0,0,0,1.78-8.49c0-.28,0-.66-.32-.77a.56.56,0,0,0-.66.45C227.15,177.2,226.39,180,227.17,183.18Z" transform="translate(-18.41 -38.72)" style="fill:#010101"/><path d="M199.17,179.85a30.68,30.68,0,0,1-.82,7.13c-.13.49-.23,1.14-1,1a1.18,1.18,0,0,1-1-1.26c0-1.15.06-2.3,0-3.45,0-.41.32-1.1-.58-1.05-.68,0-1.49-.16-1.52.94a2.44,2.44,0,0,1-.18.85,1.92,1.92,0,0,1-2.17,1.39,1.83,1.83,0,0,1-1.26-2.1,35.65,35.65,0,0,1,3.7-13.4,2.22,2.22,0,0,1,2.75-1.17c1.09.22,1,1.15,1.21,2A46.8,46.8,0,0,1,199.17,179.85Zm-2.93-2.5a4.66,4.66,0,0,0-1,2.53c-.08.38.06.55.43.57s.44-.29.45-.59C196.19,179,196.21,178.18,196.24,177.35Z" transform="translate(-18.41 -38.72)" style="fill:#010101"/><path d="M237.68,178.09a29.89,29.89,0,0,1,2.21-7.21c.41-1,1-.7,1.76-.59s.83.62.85,1.26c.11,4.45-1.68,8.5-2.62,12.73a17.72,17.72,0,0,1-.78,2.64,1.92,1.92,0,0,1-1.93,1.28c-.58,0-1-.72-1.2-1.5-.71-3.43-1.68-6.8-1.78-10.35,0-1.07-.22-2.15-.19-3.24,0-.71.11-1.37,1-1.46s1.29.37,1.45,1.27A24.11,24.11,0,0,0,237.68,178.09Z" transform="translate(-18.41 -38.72)" style="fill:#010101"/><path d="M248,179.11a11.87,11.87,0,0,0,1.35-3.22,5.93,5.93,0,0,1,1.32-2.41c.51-.69,1.28-.52,1.94-.35s.67.79.64,1.36a13.3,13.3,0,0,1-1.15,4.42c-1.51,3.67-3.25,7.24-4.93,10.83-.29.62-.59,1.3-1.37,1.48-1.54.36-2.62-.9-1.9-2.48a21.41,21.41,0,0,1,1.15-3.13,4.87,4.87,0,0,0,.23-4.38,23.32,23.32,0,0,1-1.06-6.5c0-.47-.29-1.15.61-1.27a1.38,1.38,0,0,1,1.61.79A48.09,48.09,0,0,1,248,179.11Z" transform="translate(-18.41 -38.72)" style="fill:#010101"/><path d="M187.75,171.61c-.44,3.66-.83,7.32-1.62,10.92-.16.72-.26,1.25.75.73a.88.88,0,0,1,.58,0c.67.19,1.72,0,1.83.83s-.85,1-1.49,1.25c-2.76,1.07-4.42.6-5.36-1.56a6.33,6.33,0,0,1-.08-3.53c.47-3.08,1.1-6.13,1.75-9.17.37-1.71,1.65-2.52,2.86-2.06C188.41,169.58,187.38,170.77,187.75,171.61Z" transform="translate(-18.41 -38.72)" style="fill:#010101"/><path d="M252.66,183.59c0-2.34,1.35-4.05,2-6a60.36,60.36,0,0,1,2.92-6.21c.46-.94,1.1-1.84,2.31-1.35s1.08,1.65.81,2.59a84.5,84.5,0,0,1-4.44,11.68,2,2,0,0,1-2.49,1.4A1.67,1.67,0,0,1,252.66,183.59Z" transform="translate(-18.41 -38.72)" style="fill:#010101"/><path d="M157.28,182.8a31.47,31.47,0,0,1-.58,7.57c-.21.86-.54,1.9-1.61,1.78a2,2,0,0,1-1.63-2.15c-.17-3.55.19-7.1.31-10.65a2.84,2.84,0,0,1,.49-1.65,1.77,1.77,0,0,1,1.92-.83,1.81,1.81,0,0,1,1.17,1.88A39.1,39.1,0,0,1,157.28,182.8Z" transform="translate(-18.41 -38.72)" style="fill:#010101"/><path d="M252.76,187.84c1-.09,1.25.45,1.27,1.38,0,1.54-1.11,1-1.8,1.05s-.9-.36-.94-1.39C251.22,187.63,252.07,187.89,252.76,187.84Z" transform="translate(-18.41 -38.72)" style="fill:#010101"/><path d="M156.62,172.94c.08.9-.38,1.2-1.16,1.21a1.08,1.08,0,0,1-1.21-1.19,1.16,1.16,0,0,1,1.33-1.26A1,1,0,0,1,156.62,172.94Z" transform="translate(-18.41 -38.72)" style="fill:#010101"/></svg>